<?xml version="1.0" encoding="utf-8"?>
<!-- Generator: Adobe Illustrator 18.1.1, SVG Export Plug-In . SVG Version: 6.00 Build 0)  -->
<svg version="1.1" id="Capa_1" xmlns="http://www.w3.org/2000/svg" xmlns:xlink="http://www.w3.org/1999/xlink" x="0px" y="0px"
	 viewBox="-561.1 -20.1 761.3 761.3" enable-background="new -561.1 -20.1 761.3 761.3" xml:space="preserve">
<path fill="#FF3100" d="M-240.5,272.5h-26c-18,0-32.6,14.6-32.6,32.6v0v0v30.5h21c3.6,1.4,7.6,2.2,11.7,2.2h26c4.1,0,8-0.8,11.7-2.2
	h21v-30.5v0v0C-207.9,287.1-222.5,272.5-240.5,272.5z"/>
<path fill="#005DFA" d="M-99.8,272.5h-26c-18,0-32.6,14.6-32.6,32.6v0v0v30.5h21c3.6,1.4,7.6,2.2,11.7,2.2h26c4.1,0,8-0.8,11.7-2.2
	h21v-30.5v0v0C-67.2,287.1-81.8,272.5-99.8,272.5z"/>
<g>
	<g id="time-to-leave">
		<path fill="none" stroke="#000000" stroke-width="7" stroke-miterlimit="10" d="M-30.9,199.4c-4.3-13-17.3-21.7-30.4-21.7h-238.5
			c-15.2,0-26,8.7-30.4,21.7l-45.5,160.4v143.2c0,13,8.7,21.7,21.7,21.7h21.7c13,0,21.7-8.7,21.7-21.7v-21.7h260.2v21.7
			c0,13,8.7,21.7,21.7,21.7H-7c13,0,21.7-8.7,21.7-21.7V359.7L-30.9,199.4z M-299.8,416.2c-17.3,0-32.5-15.2-32.5-32.5
			c0-17.3,15.2-32.5,32.5-32.5s32.5,15.2,32.5,32.5C-267.2,401-282.4,416.2-299.8,416.2z M-61.2,416.2c-17.3,0-32.5-15.2-32.5-32.5
			c0-17.3,15.2-32.5,32.5-32.5s32.5,15.2,32.5,32.5C-28.7,401-43.9,416.2-61.2,416.2z M-332.3,338l32.5-127.8h238.5L-28.7,338
			H-332.3z"/>
	</g>
</g>
<ellipse fill="#FFFFFF" cx="-252.1" cy="275.7" rx="19.2" ry="7.3"/>
<path fill="#FFFFFF" d="M-92.2,275.7c0,4-8.6,20.4-19.2,20.4s-19.2-16.4-19.2-20.4c0-4,8.6-7.3,19.2-7.3S-92.2,271.7-92.2,275.7z"/>
<ellipse fill="none" stroke="#000000" stroke-width="4" stroke-miterlimit="10" cx="-252.1" cy="249.7" rx="17.8" ry="18.7"/>
<ellipse fill="none" stroke="#000000" stroke-width="4" stroke-miterlimit="10" cx="-111.4" cy="251.3" rx="17.8" ry="20.3"/>
<path fill="none" stroke="#000000" stroke-width="5" stroke-miterlimit="10" d="M-369.6,318.1h-21.1c-3.4,0-6.1-2.7-6.1-6.1v-9.9
	c0-3.4,2.7-6.1,6.1-6.1h21.1c3.4,0,6.1,2.7,6.1,6.1v9.9C-363.5,315.4-366.2,318.1-369.6,318.1z"/>
<path fill="none" stroke="#000000" stroke-width="5" stroke-miterlimit="10" d="M29.2,318.1H8.7c-3.5,0-6.4-2.9-6.4-6.4v-9.2
	c0-3.5,2.9-6.4,6.4-6.4h20.5c3.5,0,6.4,2.9,6.4,6.4v9.2C35.6,315.3,32.7,318.1,29.2,318.1z"/>
<rect x="-375.7" y="477.1" width="390.3" height="7.5"/>
<rect x="-333.7" y="434.2" fill="none" stroke="#000000" stroke-width="5" stroke-miterlimit="10" width="305.4" height="16.7"/>
</svg>
